# xmcd CD database file
#
# Track frame offsets:
#	150
#	35539
#	56676
#	76696
#	99492
#	119854
#	148016
#	191110
#	220439
#
# Disc length: 3080 seconds
#
# Revision: 2
# Processed by: cddbd v1.5.2PL0 Copyright (c) Steve Scherf et al.
# Submitted via: CDex 1.51
#
DISCID=870c0609
DTITLE=John Coltrane - Blue Train  [CD 10-10]
DYEAR=1900
DGENRE=Jazz
TTITLE0=Monk's Mood
TTITLE1=Evidence
TTITLE2=Crepuscule With Nellie
TTITLE3=Nutty
TTITLE4=Epistrophy
TTITLE5=Bye-Ya
TTITLE6=Sweet And Lonely
TTITLE7=Blue Monk
TTITLE8=Epistrophy  (Incomplete)
EXTD=
EXTT0=
EXTT1=
EXTT2=
EXTT3=
EXTT4=
EXTT5=
EXTT6=
EXTT7=
EXTT8=
PLAYORDER=
